<svg xmlns="http://www.w3.org/2000/svg" style="background: rgb(3, 7, 18);" preserveAspectRatio="xMidYMid" viewBox="172.58 10.56 154.84 128.88"><defs><linearGradient id="editing-gradow-gradient" x1="0" x2="1" y1="0.5000000000000001" y2="0.4999999999999999" gradientUnits="objectBoundingBox"><stop offset="0" stop-color="#0579c1"/><stop offset="1" stop-color="#0579c1"/></linearGradient><filter id="editing-gradow-filter" x="-100%" y="-100%" width="300%" height="300%"><feFlood flood-color="#0579c1" result="flood"/><feComposite operator="in" in2="SourceAlpha" in="flood" result="shadow"/><feOffset dx="-0.3" dy="-0.3" in="SourceGraphic" result="offset-1"/><feOffset dx="0.3" dy="0.3" in="shadow" result="offset-2"/><feMerge><feMergeNode in="offset-2"/><feMergeNode in="offset-1"/></feMerge></filter></defs><g filter="url(#editing-gradow-filter)"><g transform="translate(163.98999404907227, 139.44000244140625)"><path d="M86.99-16.29L121.54-128.88L163.43-128.88L163.43-121.18L148.39-117.42L148.39-11.46L163.43-7.70L163.43 0L117.42 0L117.42-7.70L130.49-11.46L130.49-117.24L93.62 0L72.49 0L35.26-117.24L35.26-11.46L48.33-7.70L48.33 0L8.59 0L8.59-7.70L23.63-11.46L23.63-117.42L8.59-121.18L8.59-128.88L51.19-128.88L86.28-16.29L86.99-16.29Z" fill="url(#editing-gradow-gradient)"/></g></g><style>text {
  font-size: 64px;
  font-family: Arial Black;
  dominant-baseline: central;
  text-anchor: middle;
}</style></svg>